PathFileType	4	(X/Y/Z)	subject01_walk1.trc
DataRate	CameraRate	NumFrames	NumMarkers	Units	OrigDataRate	OrigDataStartFrame	OrigNumFrames
60.00	60.00	       4	41	mm	60.00	38	       151
Frame#	Time	R.ASIS			L.ASIS			V.Sacral			R.Thigh.Upper			R.Thigh.Front			R.Thigh.Rear			L.Thigh.Upper			L.Thigh.Front			L.Thigh.Rear			R.Shank.Upper			R.Shank.Front			R.Shank.Rear			L.Shank.Upper			L.Shank.Front			L.Shank.Rear			R.Heel			R.Midfoot.Sup			R.Midfoot.Lat			R.Toe.Tip			L.Heel			L.Midfoot.Sup			L.Midfoot.Lat			L.Toe.Tip			Sternum			R.Acromium			L.Acromium			R.Bicep			L.Bicep			R.Elbow			L.Elbow			R.Wrist.Med			R.Wrist.Lat			L.Wrist.Med			L.Wrist.Lat			R.Toe.Lat			R.Toe.Med			L.Toe.Lat			L.Toe.Med			R.Temple			L.Temple			Top.Head			
		X1	Y1	Z1	X2	Y2	Z2	X3	Y3	Z3	X4	Y4	Z4	X5	Y5	Z5	X6	Y6	Z6	X7	Y7	Z7	X8	Y8	Z8	X9	Y9	Z9	X10	Y10	Z10	X11	Y11	Z11	X12	Y12	Z12	X13	Y13	Z13	X14	Y14	Z14	X15	Y15	Z15	X16	Y16	Z16	X17	Y17	Z17	X18	Y18	Z18	X19	Y19	Z19	X20	Y20	Z20	X21	Y21	Z21	X22	Y22	Z22	X23	Y23	Z23	X24	Y24	Z24	X25	Y25	Z25	X26	Y26	Z26	X27	Y27	Z27	X28	Y28	Z28	X29	Y29	Z29	X30	Y30	Z30	X31	Y31	Z31	X32	Y32	Z32	X33	Y33	Z33	X34	Y34	Z34	X35	Y35	Z35	X36	Y36	Z36	X37	Y37	Z37	X38	Y38	Z38	X39	Y39	Z39	X40	Y40	Z40	X41	Y41	Z41	

38	0.617000	1607.291930	1048.531010	1117.566000	1607.652470	1035.654660	856.325270	1409.220210	1046.420040	997.440530	1650.003780	740.647460	1173.156570	1718.598390	696.731140	1074.461520	1684.111760	623.979550	1168.884800	1470.896210	757.210020	810.114230	1553.807370	694.429080	867.042020	1438.341640	652.096740	831.740080	1688.410160	445.643130	1160.409390	1776.149600	443.381870	1114.821670	1734.383000	372.674530	1172.790650	1349.606510	449.160740	840.023830	1385.699040	387.124730	887.883930	1316.005250	415.793030	834.797590	1800.959410	56.433830	1097.064090	1927.873780	127.527960	1075.963680	1922.715880	104.809630	1180.911700	2064.794430	165.175400	1126.883130	1151.301220	105.160610	936.919170	1319.397980	71.202600	938.984120	1301.696590	67.705400	865.620940	1420.383640	44.117550	936.174680	1640.514830	1347.788330	984.248200	1536.555790	1440.455690	1189.872040	1587.446410	1463.806640	775.995330	1513.682500	1243.934330	1236.196980	1629.238530	1230.561890	747.872770	1453.315670	1148.520870	1261.171360	1598.326780	1126.320920	707.052520	1582.971740	912.166500	1271.219730	1536.385620	898.888180	1314.981690	1780.987000	967.169860	783.486210	1750.316100	932.564090	723.753420	2011.769710	121.654380	1201.722500	2020.406980	140.361790	1092.327450	1353.704250	36.873940	858.745010	1375.586240	46.395680	959.567510	1714.590760	1566.766850	1071.854930	1731.304500	1570.926150	933.465520	1730.009890	1744.275880	1012.572950	
39	0.633000	1608.894900	1045.997070	1119.015950	1608.383000	1034.447880	858.577990	1410.988980	1043.596800	1003.127430	1656.637760	740.655330	1173.313510	1726.518800	698.994510	1074.936200	1691.851070	623.606750	1168.209230	1469.574770	755.987490	811.694490	1552.788760	693.155210	867.319400	1436.987460	651.436100	831.833690	1693.864380	445.196530	1161.042180	1781.454530	439.691890	1112.893230	1738.311710	370.625430	1171.508000	1346.064060	449.970400	839.218120	1378.058990	386.678410	888.885510	1310.580050	417.255250	834.556720	1791.387700	56.835690	1094.954570	1921.855290	120.356160	1073.644780	1914.745300	98.687010	1178.700940	2059.615110	150.707990	1124.181570	1135.338200	110.768830	935.634030	1302.448610	69.027020	930.699050	1284.455990	68.270630	864.725220	1401.689880	43.971980	936.038140	1641.161190	1344.889160	987.710340	1537.270200	1437.068480	1194.525800	1587.518860	1461.793210	780.421750	1514.846980	1240.276860	1239.650970	1627.738040	1229.614140	750.857700	1455.696410	1144.363890	1264.843510	1596.497990	1126.153690	708.241270	1587.395020	908.965450	1273.025180	1540.454530	894.831420	1318.154300	1777.123600	961.836000	782.825710	1746.156740	928.199400	723.612980	2002.615660	108.886440	1199.088520	2013.600520	127.023730	1090.369890	1335.126770	36.906600	858.393860	1357.971470	45.695380	959.171420	1715.535770	1565.447880	1076.794710	1731.528930	1569.002560	938.906120	1730.110780	1742.011470	1017.457280	
40	0.650000	1611.287540	1044.313720	1122.250970	1609.246340	1032.713380	860.831560	1413.359070	1041.377560	1008.795050	1661.522520	739.444270	1174.752060	1734.097230	700.484800	1076.657100	1699.088130	623.848940	1168.648330	1469.567720	755.065250	813.587110	1551.985170	691.189640	868.451320	1436.619020	651.150020	832.302520	1699.482480	445.084290	1160.243120	1788.168760	437.118070	1109.061680	1739.419310	368.763850	1170.343730	1342.950810	450.659580	838.744630	1372.425840	385.165010	887.303480	1306.791410	419.045410	834.329410	1778.419430	57.969990	1093.168560	1912.450380	111.883020	1071.504590	1903.546080	91.649610	1176.601880	2051.754270	133.288620	1121.668780	1120.549290	117.860850	934.055970	1286.458160	70.878490	930.741010	1267.620030	68.892330	863.851330	1382.991580	43.889690	936.035840	1641.687990	1343.164310	991.814130	1538.195980	1434.269290	1198.854370	1588.708130	1461.759160	784.188030	1516.922670	1237.494140	1243.610340	1625.797790	1228.478030	754.707980	1458.517700	1140.721190	1268.740600	1595.039180	1125.253780	711.362580	1591.681400	905.979250	1276.181520	1545.179870	892.015080	1320.630190	1771.651610	956.653140	782.964580	1740.082950	924.779970	722.684540	1990.243350	94.412190	1197.695240	2003.797730	111.326420	1088.668180	1316.563720	36.929050	858.160600	1340.581670	44.870720	959.040040	1715.595090	1563.361690	1081.731560	1731.097110	1567.716800	943.772770	1729.839720	1740.625610	1023.027770	
41	0.667000	1613.990840	1043.136110	1124.555660	1610.957210	1032.125240	862.969250	1416.038330	1039.992310	1013.655370	1666.785030	740.611630	1175.526290	1740.621220	703.113040	1078.998700	1704.245360	624.920650	1168.967330	1471.120850	754.446960	815.656630	1553.455930	690.352540	868.572460	1437.835300	650.657350	833.774670	1702.757020	446.115690	1159.405170	1790.460390	435.519470	1108.202080	1741.229550	368.285770	1168.021410	1341.510440	451.812100	838.534810	1369.140260	385.054170	887.925520	1304.996920	421.105220	834.045030	1763.736630	59.698040	1092.033820	1900.605830	103.463240	1069.782200	1890.515870	84.809690	1174.847020	2041.701900	115.835750	1119.520250	1107.195760	126.781810	932.203060	1271.411930	76.391350	938.406630	1251.307950	69.682690	863.091860	1364.147920	43.775680	936.156290	1643.345640	1342.854130	996.493320	1539.519470	1431.949340	1204.363450	1589.041320	1461.029910	790.182280	1519.866150	1234.453370	1247.849690	1626.841490	1228.515870	757.894420	1461.731380	1137.712650	1272.725740	1594.225340	1125.354130	714.472350	1596.116460	904.319520	1279.793640	1549.893740	889.710270	1323.276490	1766.255740	950.877140	782.297320	1732.402220	920.953800	721.505310	1979.738650	80.118020	1196.919690	1991.896970	96.175460	1087.174670	1298.115390	36.931530	858.181660	1323.370760	43.989320	959.226570	1716.335390	1562.284180	1086.218850	1731.572510	1567.272090	948.833800	1729.935490	1740.389160	1028.598610	
